<?xml version="1.0" encoding="utf-8"?>
<!-- Generator: Adobe Illustrator 27.7.0, SVG Export Plug-In . SVG Version: 6.00 Build 0)  -->
<svg version="1.1" id="Layer_1" xmlns="http://www.w3.org/2000/svg" xmlns:xlink="http://www.w3.org/1999/xlink" x="0px" y="0px"
	 viewBox="0 0 132.4 212" style="enable-background:new 0 0 132.4 212;" xml:space="preserve">
<style type="text/css">
	.st0{fill:#FB9013;stroke:#303030;stroke-width:2;stroke-miterlimit:10;}
	.st1{fill:#D87512;stroke:#303030;stroke-width:2;stroke-miterlimit:10;}
	.st2{fill:#FFFFFF;stroke:#303030;stroke-width:2;stroke-miterlimit:10;}
	.st3{fill:none;stroke:#303030;stroke-width:2;}
</style>
<g transform="translate(-575.5 -254.764)">
	<path class="st0" d="M642.4,337L642.4,337l-20-40l20-40l20,40L642.4,337z M642.4,273l-12,24l12,24l12-24L642.4,273z"/>
	<path class="st1" d="M642.4,297l-24,48h48L642.4,297z"/>
	<circle class="st2" cx="642.4" cy="297" r="5"/>
	<line class="st3" x1="642.4" y1="353" x2="642.4" y2="301"/>
	<path class="st0" d="M641.9,464.5c-8.6,0-17-1.7-24.9-5c-3.8-1.6-7.4-3.6-10.9-5.9c-3.4-2.3-6.6-4.9-9.5-7.8
		c-2.9-2.9-5.5-6.1-7.8-9.5c-2.3-3.4-4.3-7.1-5.9-10.9c-3.3-7.9-5-16.4-5-24.9c0-8.6,1.7-17,5-24.9c1.6-3.8,3.6-7.4,5.9-10.9
		c2.3-3.4,4.9-6.6,7.8-9.5c2.9-2.9,6.1-5.5,9.5-7.8c3.4-2.3,7.1-4.3,10.9-5.9c7.9-3.3,16.4-5,24.9-5c8.6,0,17,1.7,24.9,5
		c3.8,1.6,7.4,3.6,10.9,5.9c3.4,2.3,6.6,4.9,9.5,7.8c2.9,2.9,5.5,6.1,7.8,9.5c2.3,3.4,4.3,7.1,5.9,10.9c3.3,7.9,5,16.4,5,24.9
		c0,8.6-1.7,17-5,24.9c-1.6,3.8-3.6,7.4-5.9,10.9c-2.3,3.4-4.9,6.6-7.8,9.5c-2.9,2.9-6.1,5.5-9.5,7.8c-3.4,2.3-7.1,4.3-10.9,5.9
		C658.9,462.8,650.4,464.5,641.9,464.5z M641.9,348.5c-7,0-13.8,1.4-20.2,4.1c-6.2,2.6-11.8,6.4-16.5,11.1
		c-4.7,4.7-8.5,10.4-11.1,16.5c-2.7,6.4-4.1,13.3-4.1,20.2c0,7,1.4,13.8,4.1,20.2c2.6,6.2,6.4,11.8,11.1,16.5
		c4.7,4.7,10.4,8.5,16.5,11.1c6.4,2.7,13.3,4.1,20.2,4.1c7,0,13.8-1.4,20.2-4.1c6.2-2.6,11.8-6.4,16.5-11.1
		c4.7-4.7,8.5-10.4,11.1-16.5c2.7-6.4,4.1-13.3,4.1-20.2c0-7-1.4-13.8-4.1-20.2c-2.6-6.2-6.4-11.8-11.1-16.5
		c-4.7-4.7-10.4-8.5-16.5-11.1C655.7,349.9,648.8,348.5,641.9,348.5z"/>
	<path class="st0" d="M642.4,321l-8,16l8,16l8-16L642.4,321z"/>
</g>
</svg>
