<?xml version="1.0" encoding="utf-8"?>
<!-- Generator: Adobe Illustrator 27.7.0, SVG Export Plug-In . SVG Version: 6.00 Build 0)  -->
<svg version="1.1" id="Layer_1" xmlns="http://www.w3.org/2000/svg" xmlns:xlink="http://www.w3.org/1999/xlink" x="0px" y="0px"
	 viewBox="0 0 542 553.2" style="enable-background:new 0 0 542 553.2;" xml:space="preserve">
<style type="text/css">
	.st0{fill:#FB9013;stroke:#303030;stroke-width:2;stroke-miterlimit:10;}
	.st1{fill:#D87512;stroke:#303030;stroke-width:2;stroke-miterlimit:10;}
	.st2{fill:#FFFFFF;stroke:#303030;stroke-width:2;stroke-miterlimit:10;}
</style>
<g transform="translate(-369.5 -123.916)">
	<path class="st0" d="M640.5,670.5c-18.3,0-36.5-1.8-54.4-5.5c-17.4-3.6-34.3-8.8-50.7-15.7c-16.1-6.8-31.4-15.1-45.9-24.9
		c-14.3-9.7-27.7-20.7-40-33c-12.2-12.2-23.3-25.6-33-40c-9.8-14.4-18.1-29.8-24.9-45.9c-6.9-16.3-12.2-33.3-15.7-50.7
		c-3.7-17.9-5.5-36.1-5.5-54.4c0-18.3,1.8-36.5,5.5-54.4c3.6-17.4,8.8-34.3,15.7-50.7c6.8-16.1,15.1-31.4,24.9-45.9
		c9.7-14.3,20.7-27.7,33-40c12.2-12.2,25.6-23.3,40-33c14.4-9.8,29.8-18.1,45.9-24.9c16.3-6.9,33.3-12.2,50.7-15.7
		c17.9-3.7,36.1-5.5,54.4-5.5c18.3,0,36.5,1.8,54.4,5.5c17.4,3.6,34.4,8.8,50.7,15.7c16.1,6.8,31.4,15.1,45.9,24.9
		c14.3,9.7,27.7,20.7,40,33c12.2,12.2,23.3,25.6,33,40c9.8,14.4,18.1,29.8,24.9,45.9c6.9,16.3,12.2,33.3,15.7,50.7
		c3.7,17.9,5.5,36.1,5.5,54.4c0,18.3-1.8,36.5-5.5,54.4c-3.6,17.4-8.8,34.4-15.7,50.7c-6.8,16.1-15.1,31.4-24.9,45.9
		c-9.7,14.3-20.7,27.7-33,40c-12.2,12.2-25.6,23.3-40,33c-14.4,9.8-29.8,18.1-45.9,24.9c-16.3,6.9-33.3,12.2-50.7,15.7
		C677,668.7,658.8,670.5,640.5,670.5z M640,150.5c-16.9,0-33.7,1.7-50.3,5.1c-16.1,3.3-31.7,8.2-46.8,14.5c-14.8,6.3-29,14-42.4,23
		c-13.2,9-25.6,19.2-36.9,30.5c-11.3,11.3-21.5,23.7-30.5,36.9c-9,13.4-16.7,27.5-23,42.4c-6.4,15.1-11.2,30.8-14.5,46.8
		c-3.4,16.5-5.1,33.4-5.1,50.3c0,16.9,1.7,33.7,5.1,50.3c3.3,16.1,8.2,31.7,14.5,46.8c6.3,14.8,14,29,23,42.4
		c9,13.2,19.2,25.6,30.5,36.9c11.3,11.3,23.7,21.5,36.9,30.5c13.4,9,27.5,16.7,42.4,23c15.1,6.4,30.8,11.2,46.8,14.5
		c16.5,3.4,33.4,5.1,50.3,5.1c16.9,0,33.7-1.7,50.3-5.1c16.1-3.3,31.7-8.2,46.8-14.5c14.8-6.3,29-14,42.4-23
		c13.2-9,25.6-19.2,36.9-30.5c11.3-11.3,21.5-23.7,30.5-36.9c9-13.4,16.7-27.5,23-42.4c6.4-15.1,11.2-30.8,14.5-46.8
		c3.4-16.5,5.1-33.4,5.1-50.3c0-16.9-1.7-33.7-5.1-50.3c-3.3-16.1-8.2-31.7-14.5-46.8c-6.3-14.8-14-29-23-42.4
		c-9-13.2-19.2-25.6-30.5-36.9c-11.3-11.3-23.7-21.5-36.9-30.5c-13.4-9-27.5-16.7-42.4-23c-15.1-6.4-30.8-11.2-46.8-14.5
		C673.7,152.2,656.9,150.5,640,150.5z"/>
	<path class="st1" d="M645.2,133.8l7.8,4.2l-7.8,4.2L641,150l-4.2-7.8L629,138l7.8-4.2l4.2-7.8L645.2,133.8z"/>
	<circle class="st2" cx="641" cy="150" r="4"/>
	<path class="st1" d="M874.5,270.8l0.2,8.8l-7.5-4.6l-8.8,0.2l4.6-7.5l-0.2-8.8l7.5,4.6l8.8-0.2L874.5,270.8z"/>
	<circle class="st2" cx="858.3" cy="275.2" r="4"/>
	<path class="st1" d="M870.1,537.8l-7.6,4.6l0.2-8.8l-4.6-7.6l8.8,0.2l7.6-4.6l-0.2,8.8l4.6,7.6L870.1,537.8z"/>
	<circle class="st2" cx="858.1" cy="526" r="4"/>
	<path class="st1" d="M636.4,667.2l-7.7-4.3l7.8-4.2l4.3-7.7l4.2,7.8l7.7,4.3l-7.8,4.2l-4.3,7.7L636.4,667.2z"/>
	<circle class="st2" cx="640.7" cy="651" r="4"/>
	<path class="st1" d="M407.7,529.3l-0.2-8.8l7.5,4.6l8.8-0.2l-4.6,7.5l0.2,8.8l-7.5-4.6l-8.8,0.2L407.7,529.3z"/>
	<circle class="st2" cx="423.9" cy="524.9" r="4"/>
	<path class="st1" d="M413.2,262.3l7.6-4.5l-0.3,8.8l4.5,7.6l-8.8-0.3l-7.6,4.5l0.3-8.8l-4.5-7.6L413.2,262.3z"/>
	<circle class="st2" cx="425" cy="274.2" r="4"/>
</g>
</svg>
